<svg width="198" height="142" viewBox="0 0 198 142" fill="none" xmlns="http://www.w3.org/2000/svg">
<path fill-rule="evenodd" clip-rule="evenodd" d="M58.5545 117.483C57.8202 117.592 57.0778 117.69 56.3276 117.777C34.6456 117.777 17.9224 98.1472 17.9224 81.0782C17.9224 59.7419 34.6456 41.8195 56.3276 41.8195C70.1424 41.8195 81.5976 48.955 88.0918 59.7415H104.974L107.535 58.0346L102.414 49.5001L97.2933 51.207C93.4711 45.9684 90.9441 43.7489 86.1985 40.9656L88.7588 35.8449L80.2243 30.7242L76.8105 34.9915C71.2922 32.364 68.1311 31.6653 62.3019 31.5777L61.4484 25.6035H50.3536V30.7242C44.2654 31.6724 41.1446 32.6145 35.8449 34.9915L32.4311 30.7242L23.8966 35.8449L25.6035 40.9656C20.832 44.1664 18.7274 46.4028 16.2156 51.207L10.2414 49.5001L5.1207 57.1812L10.2414 61.4484C7.42205 66.683 6.71126 69.6786 6.8276 75.1036L0 76.8105V87.0519L5.97415 87.9054C6.60638 93.113 7.47803 95.9277 10.2414 100.707L5.1207 104.974L10.2414 113.509L16.2156 110.949C19.0694 115.644 21.1049 117.917 25.6035 121.19L23.8966 127.164L32.4311 132.285L36.6984 127.164C41.5984 129.352 44.5533 130.186 50.3536 130.578L51.207 137.406H61.4484L62.3019 130.578C67.9425 130.247 70.9299 129.44 75.9571 127.164L79.3709 132.285L87.9054 128.018L86.1985 121.19C90.8942 118.149 93.1553 116.077 96.4399 111.802L101.561 113.509L106.681 104.974L102.414 101.561V99.0002H89.4606C86.3345 104.499 81.6626 108.844 75.81 112.005C70.5715 115.613 64.6146 117.366 58.5545 117.483Z" fill="black"/>
<path fill-rule="evenodd" clip-rule="evenodd" d="M109.241 99L109.241 101.723L113.306 101.723C114.059 106.557 114.807 109.034 116.694 113.242L113.306 115.952L117.372 122.727L121.437 121.372C123.978 125.16 125.754 126.831 129.568 128.825L128.213 133.568L134.31 137.633L137.698 133.568C141.854 135.806 144.232 136.371 148.539 136.278L149.894 141.699L158.025 141.699L158.702 136.956C162.836 136.454 165.071 135.762 168.865 133.568L172.253 137.633L179.029 133.568L176.996 128.825C180.723 126.56 182.528 124.944 185.127 121.372L189.869 122.727L193.935 115.952L189.869 112.564C191.607 108.674 192.268 106.328 192.58 101.723L198 101.046V99H182.345C181.189 115.221 166.298 127.47 153.282 127.47C137.012 127.47 123.242 115.221 122.18 99H109.241Z" fill="black"/>
<path d="M40.352 66.6727V82.4482H37.6325V66.6727H40.352ZM57.3562 66.6727V82.4482H54.6366L47.5615 71.1475V82.4482H44.842V66.6727H47.5615L54.6583 77.9951V66.6727H57.3562ZM74.2195 66.6727V82.4482H71.4999L64.4248 71.1475V82.4482H61.7053V66.6727H64.4248L71.5216 77.9951V66.6727H74.2195ZM91.1478 74.1271V74.9939C91.1478 76.1857 90.9925 77.2548 90.6819 78.201C90.3713 79.1472 89.9271 79.9526 89.3492 80.6172C88.7786 81.2817 88.0924 81.7909 87.2906 82.1449C86.4888 82.4916 85.6004 82.6649 84.6252 82.6649C83.6573 82.6649 82.7725 82.4916 81.9707 82.1449C81.1762 81.7909 80.4863 81.2817 79.9013 80.6172C79.3162 79.9526 78.8611 79.1472 78.5361 78.201C78.2183 77.2548 78.0593 76.1857 78.0593 74.9939V74.1271C78.0593 72.9353 78.2183 71.8698 78.5361 70.9308C78.8539 69.9846 79.3017 69.1792 79.8796 68.5147C80.4647 67.8429 81.1545 67.3337 81.949 66.987C82.7508 66.633 83.6357 66.4561 84.6036 66.4561C85.5787 66.4561 86.4672 66.633 87.2689 66.987C88.0707 67.3337 88.7605 67.8429 89.3384 68.5147C89.9162 69.1792 90.3605 69.9846 90.6711 70.9308C90.9889 71.8698 91.1478 72.9353 91.1478 74.1271ZM88.4283 74.9939V74.1054C88.4283 73.2242 88.3416 72.4477 88.1682 71.7759C88.0021 71.097 87.7529 70.5299 87.4206 70.0749C87.0956 69.6126 86.6947 69.2659 86.218 69.0347C85.7412 68.7964 85.2031 68.6772 84.6036 68.6772C84.004 68.6772 83.4695 68.7964 83 69.0347C82.5305 69.2659 82.1296 69.6126 81.7974 70.0749C81.4723 70.5299 81.2231 71.097 81.0498 71.7759C80.8764 72.4477 80.7897 73.2242 80.7897 74.1054V74.9939C80.7897 75.8751 80.8764 76.6552 81.0498 77.3342C81.2231 78.0132 81.4759 78.5874 81.8082 79.0569C82.1477 79.5192 82.5522 79.8696 83.0217 80.1079C83.4912 80.3391 84.0257 80.4546 84.6252 80.4546C85.232 80.4546 85.7701 80.3391 86.2396 80.1079C86.7091 79.8696 87.1064 79.5192 87.4315 79.0569C87.7565 78.5874 88.0021 78.0132 88.1682 77.3342C88.3416 76.6552 88.4283 75.8751 88.4283 74.9939Z" fill="black"/>
<path d="M110.485 88.8263V90.9824H102.565V88.8263H110.485ZM103.323 75.2069V90.9824H100.604V75.2069H103.323ZM116.6 75.2069V90.9824H113.881V75.2069H116.6ZM133.604 75.2069V90.9824H130.885L123.81 79.6817V90.9824H121.09V75.2069H123.81L130.906 86.5293V75.2069H133.604ZM140.673 75.2069V90.9824H137.953V75.2069H140.673ZM150.153 75.2069L143.761 82.8021L140.12 86.6593L139.644 83.9615L142.244 80.7544L146.838 75.2069H150.153ZM147.228 90.9824L142.038 83.5064L143.912 81.6536L150.457 90.9824H147.228Z" fill="black"/>
<path d="M168.52 88.8263V90.9824H160.599V88.8263H168.52ZM161.358 75.2069V90.9824H158.638V75.2069H161.358ZM181.612 88.8263V90.9824H173.692V88.8263H181.612ZM174.451 75.2069V90.9824H171.731V75.2069H174.451ZM193.427 85.8467H196.135C196.049 86.8796 195.76 87.8006 195.269 88.6096C194.777 89.4114 194.088 90.0434 193.199 90.5057C192.311 90.968 191.231 91.1991 189.96 91.1991C188.984 91.1991 188.107 91.0258 187.327 90.679C186.547 90.3251 185.878 89.8267 185.322 89.1838C184.766 88.5338 184.34 87.75 184.044 86.8327C183.755 85.9153 183.61 84.8896 183.61 83.7556V82.4446C183.61 81.3105 183.758 80.2848 184.055 79.3675C184.358 78.4501 184.791 77.6664 185.355 77.0163C185.918 76.359 186.593 75.857 187.381 75.5103C188.175 75.1636 189.067 74.9902 190.057 74.9902C191.314 74.9902 192.376 75.2214 193.242 75.6837C194.109 76.1459 194.781 76.7852 195.258 77.6014C195.742 78.4176 196.038 79.3531 196.146 80.4076H193.437C193.365 79.7287 193.206 79.1472 192.961 78.6632C192.722 78.1793 192.368 77.8109 191.899 77.5581C191.429 77.298 190.815 77.168 190.057 77.168C189.436 77.168 188.894 77.2836 188.432 77.5147C187.97 77.7459 187.583 78.0854 187.272 78.5332C186.962 78.9811 186.727 79.5336 186.568 80.1909C186.417 80.841 186.341 81.585 186.341 82.4229V83.7556C186.341 84.5502 186.409 85.2725 186.547 85.9226C186.691 86.5654 186.908 87.118 187.197 87.5803C187.493 88.0426 187.868 88.4001 188.323 88.6529C188.779 88.9057 189.324 89.0322 189.96 89.0322C190.732 89.0322 191.357 88.9094 191.834 88.6638C192.318 88.4182 192.683 88.0606 192.928 87.5911C193.181 87.1144 193.347 86.5329 193.427 85.8467Z" fill="black"/>
<path d="M135.698 46.9398V53.7674L132.285 54.6208L131.431 58.0346H125.457V54.6208C122.573 54.7123 121.112 54.2871 118.629 52.9139L116.069 55.4743L111.802 52.9139L112.655 49.5001C110.103 48.4169 108.976 47.4576 107.535 45.2329L104.121 46.0863L101.56 40.9656L104.121 39.2587C102.644 36.2846 102.429 34.5977 102.414 31.5777H99V26.457L102.414 25.6035C101.848 22.7492 102.207 21.252 104.121 18.7759L101.56 16.2156L104.121 11.9483L107.535 12.8018C108.563 10.109 109.691 8.99252 112.655 7.68105L111.802 4.26725L116.069 1.7069L118.629 4.26725C121.108 2.80893 122.607 2.45144 125.457 2.56035V0H131.431V2.56035C134.543 2.55018 136.208 2.88949 139.112 4.26725L141.673 1.7069L145.94 4.26725L145.086 7.68105C147.287 9.36664 148.313 10.4368 149.354 12.8018L152.767 11.9483L155.328 16.2156L152.767 18.7759C154.349 20.8632 154.822 22.2949 154.474 25.6035L157.888 26.457V31.5777L154.474 32.4311V34.9915H147.647C149.354 29.0173 149.354 18.5199 139.966 11.9483C130.212 5.1207 119.647 10.4174 116.922 12.8018C110.095 18.7759 106.681 27.3104 110.948 36.6984C114.829 45.2358 122.897 47.7932 127.164 47.7932C132.285 47.7932 134.56 47.5087 135.698 46.9398Z" fill="black"/>
</svg>
