<svg width="116" height="84" viewBox="0 0 116 84" fill="none" xmlns="http://www.w3.org/2000/svg">
<path fill-rule="evenodd" clip-rule="evenodd" d="M34.3029 68.8283C33.8733 68.8921 33.4389 68.9494 33 69C20.2975 69 10.5 57.5 10.5 47.5C10.5 35 20.2975 24.5 33 24.5C41.0936 24.5 47.8048 28.6805 51.6094 35H61.5L63 34L60 29L57 30C54.7607 26.9309 53.2803 25.6306 50.5 24L52 21L47 18L45 20.5C41.767 18.9607 39.9151 18.5513 36.5 18.5L36 15H29.5V18C25.9332 18.5555 24.1049 19.1074 21 20.5L19 18L14 21L15 24C12.2046 25.8752 10.9716 27.1854 9.5 30L6 29L3 33.5L6 36C4.34826 39.0667 3.93184 40.8217 4 44L0 45V51L3.5 51.5C3.87039 54.5509 4.38106 56.1999 6 59L3 61.5L6 66.5L9.5 65C11.1719 67.7506 12.3645 69.0826 15 71L14 74.5L19 77.5L21.5 74.5C24.3707 75.7819 26.1019 76.2703 29.5 76.5L30 80.5H36L36.5 76.5C39.8046 76.3059 41.5548 75.8335 44.5 74.5L46.5 77.5L51.5 75L50.5 71C53.251 69.2183 54.5757 68.0048 56.5 65.5L59.5 66.5L62.5 61.5L60 59.5V58H52.4111C50.5799 61.2212 47.8433 63.7661 44.4152 65.618C41.3453 67.7326 37.8543 68.7602 34.3029 68.8283Z" fill="white"/>
<path fill-rule="evenodd" clip-rule="evenodd" d="M116 58L106.828 58C106.151 67.5032 97.4271 74.6793 89.8016 74.6793C80.2697 74.6793 72.2027 67.5032 71.5806 58L64 58V59.5954L66.3817 59.5954C66.8227 62.4271 67.2609 63.8786 68.3664 66.3435L66.3817 67.9313L68.7634 71.9008L71.145 71.1069C72.6337 73.3261 73.6739 74.305 75.9084 75.4733L75.1145 78.2519L78.687 80.6336L80.6718 78.2519C83.1064 79.5632 84.4997 79.8938 87.0229 79.8397L87.8168 83.0153H92.5802L92.9771 80.2366C95.3992 79.9426 96.7083 79.5372 98.9313 78.2519L100.916 80.6336L104.885 78.2519L103.695 75.4733C105.878 74.1459 106.936 73.1992 108.458 71.1069L111.237 71.9008L113.618 67.9313L111.237 65.9466C112.254 63.6675 112.642 62.2931 112.824 59.5954L116 59.1985V58Z" fill="white"/>
<path d="M23.6406 38.7578V48H22.0474V38.7578H23.6406ZM33.6026 38.7578V48H32.0094L27.8644 41.3794V48H26.2711V38.7578H27.8644L32.0221 45.3911V38.7578H33.6026ZM43.4821 38.7578V48H41.8889L37.7438 41.3794V48H36.1506V38.7578H37.7438L41.9016 45.3911V38.7578H43.4821ZM53.3997 43.125V43.6328C53.3997 44.3311 53.3087 44.9574 53.1268 45.5117C52.9448 46.0661 52.6845 46.5379 52.346 46.9272C52.0117 47.3166 51.6097 47.6149 51.1399 47.8223C50.6702 48.0254 50.1497 48.127 49.5784 48.127C49.0114 48.127 48.493 48.0254 48.0232 47.8223C47.5577 47.6149 47.1536 47.3166 46.8108 46.9272C46.4681 46.5379 46.2015 46.0661 46.011 45.5117C45.8248 44.9574 45.7317 44.3311 45.7317 43.6328V43.125C45.7317 42.4268 45.8248 41.8026 46.011 41.2524C46.1972 40.6981 46.4596 40.2262 46.7981 39.8369C47.1409 39.4434 47.5451 39.145 48.0105 38.9419C48.4803 38.7345 48.9987 38.6309 49.5657 38.6309C50.137 38.6309 50.6575 38.7345 51.1272 38.9419C51.597 39.145 52.0011 39.4434 52.3396 39.8369C52.6782 40.2262 52.9384 40.6981 53.1204 41.2524C53.3066 41.8026 53.3997 42.4268 53.3997 43.125ZM51.8064 43.6328V43.1123C51.8064 42.596 51.7557 42.1411 51.6541 41.7476C51.5568 41.3498 51.4108 41.0176 51.2161 40.751C51.0257 40.4801 50.7908 40.277 50.5115 40.1416C50.2322 40.002 49.917 39.9321 49.5657 39.9321C49.2145 39.9321 48.9013 40.002 48.6263 40.1416C48.3512 40.277 48.1163 40.4801 47.9217 40.751C47.7313 41.0176 47.5853 41.3498 47.4837 41.7476C47.3821 42.1411 47.3313 42.596 47.3313 43.1123V43.6328C47.3313 44.1491 47.3821 44.6061 47.4837 45.0039C47.5853 45.4017 47.7334 45.7381 47.928 46.0132C48.1269 46.284 48.3639 46.4893 48.639 46.6289C48.914 46.7643 49.2272 46.832 49.5784 46.832C49.9339 46.832 50.2492 46.7643 50.5242 46.6289C50.7993 46.4893 51.032 46.284 51.2225 46.0132C51.4129 45.7381 51.5568 45.4017 51.6541 45.0039C51.7557 44.6061 51.8064 44.1491 51.8064 43.6328Z" fill="white"/>
<path d="M64.7285 51.7368V53H60.0884V51.7368H64.7285ZM60.5327 43.7578V53H58.9395V43.7578H60.5327ZM68.3111 43.7578V53H66.7179V43.7578H68.3111ZM78.2731 43.7578V53H76.6799L72.5349 46.3794V53H70.9416V43.7578H72.5349L76.6926 50.3911V43.7578H78.2731ZM82.4144 43.7578V53H80.8211V43.7578H82.4144ZM87.9686 43.7578L84.2234 48.2075L82.0906 50.4673L81.8113 48.8867L83.3348 47.0078L86.0262 43.7578H87.9686ZM86.2547 53L83.2142 48.6201L84.3123 47.5347L88.1463 53H86.2547Z" fill="white"/>
<path d="M98.7285 51.7368V53H94.0884V51.7368H98.7285ZM94.5327 43.7578V53H92.9395V43.7578H94.5327ZM106.399 51.7368V53H101.759V51.7368H106.399ZM102.203 43.7578V53H100.61V43.7578H102.203ZM113.321 49.9912H114.907C114.857 50.5964 114.687 51.1359 114.4 51.6099C114.112 52.0796 113.708 52.4499 113.187 52.7207C112.667 52.9915 112.034 53.127 111.289 53.127C110.718 53.127 110.204 53.0254 109.747 52.8223C109.29 52.6149 108.898 52.3229 108.572 51.9463C108.247 51.5654 107.997 51.1063 107.823 50.5688C107.654 50.0314 107.57 49.4305 107.57 48.7661V47.998C107.57 47.3337 107.656 46.7327 107.83 46.1953C108.008 45.6579 108.261 45.1987 108.592 44.8179C108.922 44.4328 109.317 44.1387 109.779 43.9355C110.244 43.7324 110.767 43.6309 111.346 43.6309C112.083 43.6309 112.705 43.7663 113.213 44.0371C113.72 44.3079 114.114 44.6825 114.393 45.1606C114.677 45.6388 114.85 46.1868 114.914 46.8047H113.327C113.285 46.4069 113.191 46.0662 113.048 45.7827C112.908 45.4992 112.701 45.2834 112.425 45.1353C112.15 44.9829 111.791 44.9067 111.346 44.9067C110.982 44.9067 110.665 44.9744 110.394 45.1099C110.123 45.2453 109.897 45.4442 109.715 45.7065C109.533 45.9689 109.396 46.2926 109.302 46.6777C109.214 47.0586 109.169 47.4945 109.169 47.9854V48.7661C109.169 49.2316 109.209 49.6548 109.29 50.0356C109.374 50.4123 109.501 50.736 109.671 51.0068C109.844 51.2777 110.064 51.4871 110.331 51.6353C110.597 51.7834 110.917 51.8574 111.289 51.8574C111.742 51.8574 112.108 51.7855 112.387 51.6416C112.671 51.4977 112.885 51.2882 113.029 51.0132C113.177 50.7339 113.274 50.3932 113.321 49.9912Z" fill="white"/>
<path d="M79.5 27.5V31.5L77.5 32L77 34H73.5V32C71.8101 32.0536 70.9545 31.8045 69.5 31L68 32.5L65.5 31L66 29C64.5047 28.3654 63.8445 27.8034 63 26.5L61 27L59.5 24L61 23C60.1347 21.2576 60.0091 20.2693 60 18.5H58V15.5L60 15C59.6687 13.3278 59.8787 12.4506 61 11L59.5 9.5L61 7L63 7.5C63.6027 5.92244 64.2632 5.26833 66 4.5L65.5 2.5L68 1L69.5 2.5C70.9519 1.64563 71.8301 1.43619 73.5 1.5V0H77V1.5C78.8233 1.49404 79.7987 1.69283 81.5 2.5L83 1L85.5 2.5L85 4.5C86.2894 5.48751 86.8905 6.11447 87.5 7.5L89.5 7L91 9.5L89.5 11C90.4264 12.2229 90.7038 13.0616 90.5 15L92.5 15.5V18.5L90.5 19V20.5H86.5C87.5 17 87.5 10.85 82 7C76.2857 3 70.0965 6.1031 68.5 7.5C64.5 11 62.5 16 65 21.5C67.2735 26.5017 72 28 74.5 28C77.5 28 78.8333 27.8333 79.5 27.5Z" fill="white"/>
</svg>
